<?xml version="1.0" encoding="utf-8"?>
<!-- Generator: Adobe Illustrator 18.0.0, SVG Export Plug-In . SVG Version: 6.00 Build 0)  -->
<!DOCTYPE svg PUBLIC "-//W3C//DTD SVG 1.1//EN" "http://www.w3.org/Graphics/SVG/1.1/DTD/svg11.dtd">
<svg version="1.1" id="Layer_1" xmlns="http://www.w3.org/2000/svg" xmlns:xlink="http://www.w3.org/1999/xlink" x="0px" y="0px"
	 viewBox="0 0 133 2" enable-background="new 0 0 133 2" xml:space="preserve">
<g>
	<path fill="#C5C2B7" d="M46.4,0.4c0.8,0,1.4,0,1.9,0c0.7,0,1.2,0,1.9,0c0.5,0,1-0.1,1.9-0.1c0.3,0,0.3,0.6,0.3,0.9
		c0,0.3,0,0.2-0.3,0.2c-0.8,0-1.4,0.1-1.9,0.2c-0.7,0-1.2-0.1-1.9,0c-0.5,0-1,0-1.8,0c-0.3,0-0.6-0.3-0.6-0.6S46.1,0.4,46.4,0.4z"/>
	<path fill="#C5C2B7" d="M83.4,0.4c-0.6,0-1.1,0.2-1.4,0.2c-0.5,0-0.9,0-1.4,0c-0.4,0-0.8-0.1-1.4-0.1c-0.2,0-0.5,0.5-0.5,0.8
		s0.5,0.4,0.7,0.4c1.1,0,1.6,0,2,0c0.5,0,1,0,2,0c0.2,0,0.8,0,0.8-0.3S83.6,0.4,83.4,0.4z"/>
	<path fill="#C5C2B7" d="M57.3,0.3c0.7,0,1.2,0.1,1.7,0.1c0.6,0,1.1,0,1.7,0c0.4,0,0.9,0.1,1.7,0.1c0.3,0,0.3,0.4,0.3,0.7
		s0,0.4-0.3,0.4c-0.7,0-1.2,0-1.7,0c-0.6,0-1.1,0.1-1.7,0.1c-0.4,0-0.9-0.2-1.7-0.2c-0.3,0-0.7,0-0.7-0.3S57,0.3,57.3,0.3z"/>
	<path fill="#C5C2B7" d="M95.1,0.2c-0.7,0-1.1,0-1.5,0c-0.6,0-0.9,0.3-1.5,0.3c-0.4,0-0.9,0.1-1.5,0.1c-0.3,0-0.4,0.4-0.4,0.6
		s0.5,0.3,0.8,0.3c0.6,0,1.1,0.1,1.4,0.1c0.5,0,0.9-0.1,1.4-0.1c0.4,0,0.8,0.1,1.4,0c0.3,0,0.3-0.4,0.3-0.6S95.4,0.2,95.1,0.2z"/>
	<path fill="#C5C2B7" d="M117.2,0.4c-0.7,0-1.2,0-1.7-0.1c-0.6,0-1.1,0.2-1.7,0.2c-0.4,0-0.9-0.1-1.7-0.1c-0.3,0-0.5,0.4-0.5,0.7
		s0.5,0.6,0.8,0.6c0.7,0,1.2-0.2,1.6-0.2c0.6,0,1,0,1.6,0c0.4,0,0.9,0.3,1.6,0.3c0.3,0,0.5-0.4,0.5-0.7S117.5,0.4,117.2,0.4z"/>
	<path fill="#C5C2B7" d="M68.9,0.3c0.7,0,1.1,0.2,1.5,0.2c0.6,0,0.9,0,1.5,0.1c0.4,0,0.9,0,1.5,0c0.2,0,0.2,0.5,0.2,0.7
		s0,0.4-0.2,0.4c-0.7,0-1.1,0-1.5-0.1c-0.6,0-1,0.2-1.5,0.2c-0.4,0-0.8-0.4-1.5-0.4c-0.2,0-0.8-0.1-0.8-0.4S68.7,0.3,68.9,0.3z"/>
	<path fill="#C5C2B7" d="M7.3,0.5c-0.6,0-1.1-0.2-1.5-0.2c-0.6,0-1,0.1-1.5,0.1c-0.4,0-0.9,0-1.5,0C2.5,0.4,2,0.2,1.4,0.2
		C1.1,0.2,1,0.9,1,1.1s0,0.5,0.4,0.6c0.6,0,1.1,0.1,1.5,0.1c0.6,0,1-0.1,1.5-0.1c0.4,0,0.9,0,1.5,0c0.4,0,0.9,0,1.5,0
		c0.3,0,0.5-0.3,0.5-0.5C7.8,0.9,7.6,0.5,7.3,0.5z"/>
	<path fill="#C5C2B7" d="M40,0.4c-0.6,0-1.1,0-1.4,0c-0.5,0-0.9-0.2-1.4-0.2c-0.4,0-0.8,0.1-1.4,0.1c-0.2,0-0.4,0.6-0.4,0.8
		s0.2,0.3,0.4,0.3c0.6,0,1.1-0.1,1.4-0.1c0.5,0.1,0.9,0,1.4,0.1c0.4,0,0.8,0.3,1.4,0.3c0.2,0,0.2-0.3,0.2-0.6S40.2,0.4,40,0.4z"/>
	<path fill="#C5C2B7" d="M128.2,0.2c-0.7,0-1.2,0-1.7,0c-0.6,0-1,0.3-1.7,0.3c-0.4,0-1-0.2-1.7-0.2c-0.3,0-0.4,0.7-0.4,1
		c0,0.3,0.1,0.2,0.4,0.2c0.7,0,1.2-0.1,1.7-0.1c0.6,0,1,0.3,1.7,0.3c0.4,0,0.9-0.3,1.7-0.3c0.3,0,0.8,0,0.8-0.3S128.5,0.2,128.2,0.2
		z"/>
	<path fill="#C5C2B7" d="M14,0.3c0.6,0,1.1,0,1.5,0c0.5,0,0.9,0.1,1.5,0.1c0.4,0,0.8-0.1,1.5-0.1c0.2,0,0.4,0.7,0.4,0.9
		s-0.2,0.3-0.4,0.3c-0.6,0-1.1-0.2-1.5-0.1c-0.5,0.1-0.9,0-1.5,0.1c-0.4,0-0.8,0.2-1.4,0.2c-0.2,0-0.6-0.2-0.6-0.5S13.8,0.3,14,0.3z
		"/>
	<path fill="#C5C2B7" d="M28.5,0.2c-0.7,0-1.1,0.3-1.5,0.3c-0.6,0-1-0.2-1.6-0.2c-0.4,0-0.9,0.2-1.5,0.3c-0.3,0-0.2,0.5-0.2,0.7
		s0.3,0.4,0.5,0.4c0.7,0,1.1,0,1.5,0c0.6,0,0.9,0,1.5,0c0.4,0,0.8-0.2,1.4-0.2c0.3,0,0.8-0.2,0.8-0.5S28.7,0.2,28.5,0.2z"/>
	<path fill="#C5C2B7" d="M106.2,0.3c-0.7,0-1.2,0.2-1.7,0.2c-0.6,0-1.1-0.2-1.7-0.2c-0.4,0-0.9,0-1.7,0c-0.3,0-0.3,0.6-0.3,0.9
		s0.4,0.5,0.7,0.5c0.7,0,1.2-0.1,1.6-0.1c0.6,0,1-0.1,1.6-0.1c0.4,0,0.9,0.2,1.6,0.2c0.3,0,0.7-0.2,0.7-0.5
		C106.8,0.9,106.4,0.3,106.2,0.3z"/>
</g>
</svg>
