<?xml version="1.0" encoding="utf-8"?>
<!-- Generator: Adobe Illustrator 17.0.0, SVG Export Plug-In . SVG Version: 6.00 Build 0)  -->
<!DOCTYPE svg PUBLIC "-//W3C//DTD SVG 1.1//EN" "http://www.w3.org/Graphics/SVG/1.1/DTD/svg11.dtd">
<svg version="1.1" id="Layer_1" xmlns="http://www.w3.org/2000/svg" xmlns:xlink="http://www.w3.org/1999/xlink" x="0px" y="0px"
	 width="82px" height="3px" viewBox="0 0 82 3" enable-background="new 0 0 82 3" xml:space="preserve">
<g>
	<path fill="#C5C1B7" d="M80.704,2.395c-1.6,0.877-1.78,0.256-3.604,0.256c-1.825,0-1.825-0.463-3.651-0.463
		c-1.825,0-1.825,0.029-3.65,0.029c-1.825,0-1.825,0.027-3.651,0.027c-1.825,0-1.825,0.291-3.65,0.291
		c-1.826,0-1.826,0.056-3.651,0.056s-1.825-0.115-3.65-0.115s-1.825,0.113-3.65,0.113c-1.823,0-1.823-0.21-3.646-0.21
		c-1.825,0-1.825-0.165-3.651-0.165c-1.824,0-1.824,0.293-3.649,0.293c-1.826,0-1.826,0.086-3.652,0.086
		c-1.825,0-1.825-0.007-3.65-0.007c-1.826,0-1.826-0.364-3.652-0.364c-1.827,0-1.827-0.019-3.653-0.019
		c-1.827,0-1.827,0.524-3.653,0.524c-1.827,0-1.827-0.078-3.653-0.078s-1.826,0.066-3.652,0.066s-1.826-0.364-3.653-0.364
		s-1.827-0.13-3.654-0.13c-1.83,0-1.83,0.292-3.66,0.292S2.126,3.153,0.52,2.275l-0.1-1.78c1.6-0.877,1.815,0.222,3.639,0.222
		c1.825,0,1.825-0.578,3.651-0.578c1.825,0,1.825,0.025,3.65,0.025s1.825,0.574,3.651,0.574c1.825,0,1.825-0.557,3.65-0.557
		c1.826,0,1.826,0.334,3.651,0.334c1.825,0,1.825-0.336,3.65-0.336s1.825,0.295,3.65,0.295c1.823,0,1.823-0.224,3.646-0.224
		c1.825,0,1.825,0.001,3.651,0.001c1.824,0,1.824,0.262,3.649,0.262c1.826,0,1.826-0.108,3.652-0.108
		c1.825,0,1.825,0.379,3.65,0.379c1.826,0,1.826-0.426,3.652-0.426c1.827,0,1.827-0.132,3.653-0.132
		c1.827,0,1.827,0.479,3.653,0.479c1.827,0,1.827-0.463,3.653-0.463c1.826,0,1.826-0.077,3.652-0.077
		c1.826,0,1.826,0.439,3.653,0.439S71.603,0.81,73.43,0.81c1.83,0,1.83-0.139,3.66-0.139s1.816-0.438,3.559,0.119
		C81.664,1.118,81.581,1.914,80.704,2.395z"/>
</g>
</svg>
